{"title":"Scorpion Season 1 S01 1080p Web x265 HEVC AAC 5.1 JoyBell","uid":12797777,"size":7591939630,"categoryP":"video","categoryS":"hd___tv_shows","magnet":"?xt=urn:btih:b37a37beee2f65373d02a1b481936bac0c23bf4d&amp;dn=Scorpion+Season+1+S01+1080p+Web+x265+HEVC+AAC+5.1+JoyBell&amp;tr=udp%3A%2F%2Ftracker.leechers-paradise.org%3A6969&amp;tr=udp%3A%2F%2Fzer0day.ch%3A1337&amp;tr=udp%3A%2F%2Fopen.demonii.com%3A1337&amp;tr=udp%3A%2F%2Ftracker.coppersurfer.tk%3A6969&amp;tr=udp%3A%2F%2Fexodus.desync.com%3A6969","seeders":16,"leechers":6,"uploader":"garumon","files":24,"time":1448006087,"description":"Scorpion Season 1 S01 1080p Web x265 HEVC AAC 5.1 (Size: 7.07 GB)\r\n\r\nScorpion S01E12 1080p x265.m4v \t358.77 MB\r\nScorpion S01E04 1080p x265.m4v \t343.16 MB\r\nScorpion S01E10 1080p x265.m4v \t341.97 MB\r\nScorpion S01E07 1080p x265.m4v \t341.76 MB\r\nScorpion S01E21 1080p x265.m4v \t339.31 MB\r\nScorpion S01E17 1080p x265.m4v \t337.33 MB\r\nScorpion S01E06 1080p x265.m4v \t334.16 MB\r\nScorpion S01E05 1080p x265.m4v \t334.08 MB\r\nScorpion S01E15 1080p x265.m4v \t331.7 MB\r\nScorpion S01E03 1080p x265.m4v \t329.35 MB\r\nScorpion S01E08 1080p x265.m4v \t327.23 MB\r\nScorpion S01E16 1080p x265.m4v \t326.24 MB\r\nScorpion S01E01 1080p x265.m4v \t325.42 MB\r\nScorpion S01E14 1080p x265.m4v \t325.03 MB\r\nScorpion S01E13 1080p x265.m4v \t322.77 MB\r\nScorpion S01E02 1080p x265.m4v \t322.4 MB\r\nScorpion S01E20 1080p x265.m4v \t320.67 MB\r\nScorpion S01E09 1080p x265.m4v \t318.74 MB\r\nScorpion S01E18 1080p x265.m4v \t316.67 MB\r\nScorpion S01E19 1080p x265.m4v \t315.25 MB\r\nScorpion S01E22 1080p x265.mkv \t314.46 MB\r\nScorpion S01E11 1080p x265.m4v \t313.75 MB\r\n  \t\t\r\nScreenShot: \nhttp://i.imgur.com/cLYf5Ev.jpg \nhttp://i.imgur.com/eOolhgX.jpg \nhttp://i.imgur.com/eHZ2FW2.jpg \nhttp://i.imgur.com/z8LRZ2J.jpg\r\n\r\n\r\nDescription\r\nA x265/HEVC Player is a REQUIREMENT for this Torrent!\r\n\r\nIf you like it, put a seed on it!\r\n\r\n\r\n\r\nScorpion Season 1, in 1080p in x265 aka HEVC and HE-AAC 5.1 audio all for about 324mb each!\r\nEncoded using the time consuming 2 pass, from the web source, for the highest quality possible.\r\n\r\n\r\n\r\n\r\n\r\nAny questions, or help playing this file, click on the HEVC banner just above.\r\nPlease watch before rating or commenting on quality. \r\n\r\n\r\n\r\nEncoding info:\r\n\r\nFormat : MPEG-4\r\nFormat profile : Base Media / Version 2\r\nCodec ID : mp42\r\nFile size : 327 MiB\r\nDuration : 41mn 41s\r\nOverall bit rate mode : Variable\r\nOverall bit rate : 1 097 Kbps\r\nWriting application : HandBrake 0.10.1 2015030800\r\n\r\nVideo\r\nID : 1\r\nFormat : HEVC\r\nFormat/Info : High Efficiency Video Coding\r\nFormat profile :   @Main\r\nCodec ID : hev1\r\nCodec ID/Info : High Efficiency Video Coding\r\nDuration : 41mn 41s\r\nBit rate : 900 Kbps\r\nWidth : 1 920 pixels\r\nHeight : 1 080 pixels\r\nDisplay aspect ratio : 16:9\r\nFrame rate mode : Variable\r\nFrame rate : 23.976 fps\r\nMinimum frame rate : 9.615 fps\r\nMaximum frame rate : 24.390 fps\r\nColor space : YUV\r\nChroma subsampling : 4:2:0\r\nBit depth : 8 bits\r\nBits/(Pixel*Frame) : 0.018\r\nStream size : 268 MiB (82%)\r\nWriting library : x265 1.5:[Windows][GCC 4.9.0][64 bit]\r\nEncoding settings : wpp / ctu=64 / tu-intra-depth=1 / tu-inter-depth=1 / me=1 / subme=2 / merange=57 / no-rect / no-amp / max-merge=2 / temporal-mvp / no-early-skip / no-fast-cbf / rdpenalty=0 / no-tskip / no-tskip-fast / strong-intra-smoothing / no-lossless / no-cu-lossless / no-constrained-intra / fast-intra / open-gop / interlace=0 / keyint=240 / min-keyint=24 / scenecut=40 / rc-lookahead=15 / bframes=4 / bframe-bias=0 / b-adapt=0 / ref=2 / weightp / no-weightb / aq-mode=1 / aq-strength=1.00 / cbqpoffs=0 / crqpoffs=0 / rd=2 / psy-rd=0.30 / psy-rdoq=0.00 / signhide / lft / sao / no-sao-non-deblock / b-pyramid / cutree / rc=2 / pass / bitrate=900 / qcomp=0.60 / qpmin=0 / qpmax=51 / qpstep=4 / cplxblur=20.0 / qblur=0.5 / ipratio=1.40 / pbratio=1.30\r\nColor range : Limited\r\nColor primaries : BT.709\r\nTransfer characteristics : BT.709\r\nMatrix coefficients : BT.709\r\n\r\nAudio\r\nID : 2\r\nFormat : AAC\r\nFormat/Info : Advanced Audio Codec\r\nFormat profile : HE-AAC / LC\r\nCodec ID : 40\r\nDuration : 41mn 41s\r\nBit rate mode : Variable\r\nBit rate : 192 Kbps\r\nChannel(s) : 2 channels\r\nChannel(s)_Original : 6 channels\r\nChannel positions : Front: L C R, Side: L R, LFE\r\nSampling rate : 48.0 KHz / 24.0 KHz\r\nCompression mode : Lossy\r\nStream size : 57.3 MiB (17%)\r\nTitle : Surround / Surround\r\nLanguage : English\r\n\r\n\r\n\r\nSource:\r\nThis is a gathering of my individual episodes over this season","torrent":{"xt":"urn:btih:b37a37beee2f65373d02a1b481936bac0c23bf4d","amp;dn":"Scorpion+Season+1+S01+1080p+Web+x265+HEVC+AAC+5.1+JoyBell","amp;tr":["udp%3A%2F%2Ftracker.leechers-paradise.org%3A6969","udp%3A%2F%2Fzer0day.ch%3A1337","udp%3A%2F%2Fopen.demonii.com%3A1337","udp%3A%2F%2Ftracker.coppersurfer.tk%3A6969","udp%3A%2F%2Fexodus.desync.com%3A6969"],"infoHash":"b37a37beee2f65373d02a1b481936bac0c23bf4d","infoHashBuffer":{"type":"Buffer","data":[179,122,55,190,238,47,101,55,61,2,161,180,129,147,107,172,12,35,191,77]},"announce":[],"urlList":[]}}